<?xml version="1.0" standalone="no"?><!DOCTYPE svg PUBLIC "-//W3C//DTD SVG 1.1//EN" "http://www.w3.org/Graphics/SVG/1.1/DTD/svg11.dtd"><svg t="1515313806645" class="icon" style="" viewBox="0 0 1025 1024" version="1.1" xmlns="http://www.w3.org/2000/svg" p-id="3075" xmlns:xlink="http://www.w3.org/1999/xlink" width="200.1953125" height="200"><defs><style type="text/css"></style></defs><path d="M489.073338 477.090909m-23.272727 0a23.272727 23.272727 0 1 0 46.545454 0 23.272727 23.272727 0 1 0-46.545454 0Z" fill="#cdcdcd" p-id="3076"></path><path d="M465.800611 616.727273h46.545454c38.4 0 69.818182-31.418182 69.818182-69.818182V407.272727c0-38.4-31.418182-69.818182-69.818182-69.818182h-46.545454c-38.4 0-69.818182 31.418182-69.818182 69.818182v139.636364c0 38.4 31.418182 69.818182 69.818182 69.818182z m-23.272727-209.454546c0-12.8 10.472727-23.272727 23.272727-23.272727h46.545454c12.8 0 23.272727 10.472727 23.272728 23.272727v139.636364c0 12.8-10.472727 23.272727-23.272728 23.272727h-46.545454c-12.8 0-23.272727-10.472727-23.272727-23.272727V407.272727zM640.346065 430.545455h69.818182v23.272727c0 12.8 10.472727 23.272727 23.272728 23.272727s23.272727-10.472727 23.272727-23.272727v-23.272727h23.272727c12.8 0 23.272727-10.472727 23.272727-23.272728s-10.472727-23.272727-23.272727-23.272727h-23.272727v-69.818182c0-12.8-10.472727-23.272727-23.272727-23.272727s-23.272727 10.472727-23.272728 23.272727v69.818182h-36.072727l58.181818-154.763636c4.654545-11.636364-1.163636-25.6-13.963636-30.254546-11.636364-4.654545-25.6 1.163636-30.254546 13.963637l-69.818181 186.181818c-2.327273 6.981818-1.163636 15.127273 2.327272 20.945454 4.654545 6.981818 11.636364 10.472727 19.781818 10.472728zM279.618793 686.545455v23.272727c0 12.8 10.472727 23.272727 23.272727 23.272727s23.272727-10.472727 23.272727-23.272727v-23.272727h23.272728c12.8 0 23.272727-10.472727 23.272727-23.272728s-10.472727-23.272727-23.272727-23.272727h-23.272728v-69.818182c0-12.8-10.472727-23.272727-23.272727-23.272727s-23.272727 10.472727-23.272727 23.272727v69.818182h-36.072728l58.181819-154.763636c4.654545-11.636364-1.163636-25.6-13.963637-30.254546-11.636364-4.654545-25.6 1.163636-30.254545 13.963637l-69.818182 186.181818c-2.327273 6.981818-1.163636 15.127273 2.327273 20.945454 4.654545 5.818182 11.636364 10.472727 18.618182 10.472728H279.618793z" fill="#cdcdcd" p-id="3077"></path><path d="M996.418793 112.872727c-43.054545-48.872727-125.672727-57.018182-238.545455-23.272727C685.727884 47.709091 601.946065 23.272727 512.346065 23.272727 242.382429 23.272727 23.618793 242.036364 23.618793 512c0 54.690909 9.309091 107.054545 25.6 155.927273-57.018182 105.890909-65.163636 192-20.945455 243.2C53.873338 940.218182 93.436975 954.181818 143.473338 954.181818c36.072727 0 76.8-6.981818 121.018182-19.781818C337.800611 976.290909 422.746065 1000.727273 512.346065 1000.727273c269.963636 0 488.727273-218.763636 488.727273-488.727273 0-54.690909-9.309091-107.054545-25.6-155.927273 27.927273-52.363636 45.381818-101.236364 48.872727-143.127272 3.490909-40.727273-5.818182-74.472727-27.927272-100.072728zM512.346065 69.818182c187.345455 0 347.927273 117.527273 411.927273 282.763636-57.018182 97.745455-157.090909 210.618182-279.272727 311.854546C508.855156 776.145455 378.527884 849.454545 273.800611 884.363636 150.455156 805.236364 70.164247 667.927273 70.164247 512 70.164247 267.636364 267.982429 69.818182 512.346065 69.818182zM63.182429 880.872727c-25.6-29.090909-22.109091-84.945455 9.309091-154.763636 33.745455 68.654545 82.618182 128 143.127273 174.545454-73.309091 15.127273-126.836364 9.309091-152.436364-19.781818zM954.527884 512c0 244.363636-197.818182 442.181818-442.181819 442.181818-66.327273 0-130.327273-15.127273-186.181818-41.890909 107.054545-41.890909 229.236364-115.2 349.090909-212.945454 114.036364-93.090909 207.127273-194.327273 268.8-288.581819 5.818182 32.581818 10.472727 66.327273 10.472728 101.236364z m23.272727-302.545455c-2.327273 26.763636-11.636364 57.018182-25.6 89.6-33.745455-68.654545-82.618182-128-141.963636-174.545454 72.145455-16.290909 126.836364-9.309091 151.272727 18.618182 12.8 16.290909 18.618182 38.4 16.290909 66.327272z" fill="#cdcdcd" p-id="3078"></path></svg>