<?xml version="1.0" standalone="no"?><!DOCTYPE svg PUBLIC "-//W3C//DTD SVG 1.1//EN" "http://www.w3.org/Graphics/SVG/1.1/DTD/svg11.dtd"><svg t="1515238253447" class="icon" style="" viewBox="0 0 1024 1024" version="1.1" xmlns="http://www.w3.org/2000/svg" p-id="954" xmlns:xlink="http://www.w3.org/1999/xlink" width="200" height="200"><defs><style type="text/css"></style></defs><path d="M709.13627 334.31862 815.140124 188.541383C828.730652 169.84448 824.598044 143.666716 805.901938 130.075648 787.205831 116.484551 761.039644 120.627797 747.449145 139.314233L641.445262 285.09147C627.854763 303.788373 631.987371 329.955669 650.683477 343.546766 658.111687 348.955989 666.722162 351.561216 675.259392 351.561216 688.190777 351.561216 700.944299 345.576533 709.13627 334.31862M780.56229 476.517604 952.060075 420.834958C974.041316 413.688917 986.072946 390.084978 978.937685 368.102798 971.791929 346.110123 948.209948 334.119822 926.207744 341.224021L754.720427 396.906695C732.739186 404.052736 720.697088 427.656647 727.842816 449.638855 733.586631 467.331328 749.991481 478.578773 767.630905 478.578773 771.920441 478.578773 776.272754 477.909163 780.56229 476.517604M978.937685 662.293874C986.072946 640.311666 974.041316 616.707755 952.060075 609.561714L780.56229 553.87904C758.591488 546.732999 734.978105 558.775609 727.842816 580.757817 720.697088 602.739996 732.739186 626.354404 754.720427 633.489977L926.207744 689.18309C930.507748 690.574649 934.86006 691.233792 939.149596 691.233792 956.78902 691.233792 973.19387 679.986347 978.937685 662.293874M805.901938 900.321024C824.598044 886.719488 828.730652 860.552192 815.140124 841.855289L709.13627 696.088491C695.55621 677.402055 669.390023 673.258809 650.683477 686.849906 631.987371 700.45147 627.854763 726.618766 641.445262 745.315669L747.449145 891.082439C755.641116 902.350791 768.394638 908.325006 781.326023 908.325006 789.863253 908.325006 798.4737 905.719808 805.901938 900.321024M567.738482 949.401714 567.738482 769.21253C567.738482 746.100366 549.000505 727.361621 525.889337 727.361621 502.77814 727.361621 484.040192 746.100366 484.040192 769.21253L484.040192 949.401714C484.040192 972.513877 502.77814 991.252622 525.889337 991.252622 549.000505 991.252622 567.738482 972.513877 567.738482 949.401714M304.3295 891.082439 410.322916 745.315669C423.923883 726.618766 419.791303 700.45147 401.095196 686.849906 382.39909 673.258809 356.232903 677.402055 342.642404 696.088491L236.638521 841.855289C223.048021 860.552192 227.180629 886.719488 245.866268 900.321024 253.304946 905.719808 261.915392 908.325006 270.452622 908.325006 283.384007 908.325006 296.137529 902.350791 304.3295 891.082439M125.560434 689.18309 297.058219 633.489977C319.039488 626.354404 331.071118 602.739996 323.935829 580.757817 316.80054 558.775609 293.208092 546.785308 271.205916 553.87904L99.718599 609.561714C77.73733 616.707755 65.695232 640.311666 72.830521 662.293874 78.584775 679.986347 94.989653 691.233792 112.629049 691.233792 116.918585 691.233792 121.270898 690.564181 125.560434 689.18309M323.935829 449.638855C331.071118 427.656647 319.039488 404.052736 297.058219 396.906695L125.560434 341.224021C103.579164 334.07798 79.976249 346.110123 72.830521 368.102798 65.695232 390.084978 77.73733 413.688917 99.718599 420.834958L271.205916 476.517604C275.50592 477.91963 279.858233 478.578773 284.147769 478.578773 301.787164 478.578773 318.192043 467.32086 323.935829 449.638855M401.095196 343.546766C419.791303 329.955669 423.923883 303.788373 410.322916 285.09147L304.3295 139.314233C290.739001 120.61733 264.562375 116.474084 245.866268 130.075648 227.180629 143.666716 223.048021 169.84448 236.638521 188.541383L342.642404 334.31862C350.823908 345.587001 363.577429 351.561216 376.519282 351.561216 385.046044 351.561216 393.666958 348.955989 401.095196 343.546766M525.889337 303.045518C502.77814 303.045518 484.040192 284.306773 484.040192 261.194581L484.040192 80.994958C484.040192 57.882795 502.77814 39.14405 525.889337 39.14405 549.000505 39.14405 567.738482 57.882795 567.738482 80.994958L567.738482 261.194581C567.738482 284.306773 549.000505 303.045518 525.889337 303.045518" p-id="955" fill="#bfbfbf"></path></svg>